<svg width="18" height="18" viewBox="0 0 18 18" fill="none" xmlns="http://www.w3.org/2000/svg">
<g clip-path="url(#clip0_1480_1247)">
<rect x="4" y="10" width="2" height="2" fill="#192F33"/>
<rect x="2" y="8" width="2" height="2" fill="#192F33"/>
<rect x="6" y="12" width="2" height="2" fill="#192F33"/>
<rect x="8" y="14" width="2" height="2" fill="#192F33"/>
<rect x="14" y="8" width="2" height="2" fill="#192F33"/>
<rect x="10" y="12" width="2" height="2" fill="#192F33"/>
<rect x="4" y="6" width="2" height="2" fill="#192F33"/>
<rect x="8" y="2" width="2" height="2" fill="#192F33"/>
<rect x="12" y="6" width="2" height="2" fill="#192F33"/>
<rect x="12" y="10" width="2" height="2" fill="#192F33"/>
<rect x="10" y="4" width="2" height="2" fill="#192F33"/>
<rect x="6" y="4" width="2" height="2" fill="#192F33"/>
<rect y="12" width="2" height="2" fill="#C6092B"/>
<rect x="6" y="2" width="2" height="2" fill="#C6092B"/>
<rect x="2" y="14" width="2" height="2" fill="#C6092B"/>
<rect x="2" y="10" width="2" height="2" fill="#C6092B"/>
<rect x="6" y="14" width="2" height="2" fill="#C6092B"/>
<rect x="2" y="2" width="2" height="2" fill="#C6092B"/>
<rect y="4" width="2" height="2" fill="#C6092B"/>
<rect x="2" y="6" width="2" height="2" fill="#C6092B"/>
<rect x="4" width="2" height="2" fill="#C6092B"/>
<rect x="12" width="2" height="2" fill="#C6092B"/>
<rect x="14" y="14" width="2" height="2" fill="#C6092B"/>
<rect x="14" y="10" width="2" height="2" fill="#C6092B"/>
<rect x="10" y="14" width="2" height="2" fill="#C6092B"/>
<rect x="12" y="16" width="2" height="2" fill="#C6092B"/>
<rect x="4" y="16" width="2" height="2" fill="#C6092B"/>
<rect x="10" y="2" width="2" height="2" fill="#C6092B"/>
<rect x="14" y="2" width="2" height="2" fill="#C6092B"/>
<rect x="16" y="12" width="2" height="2" fill="#C6092B"/>
<rect x="16" y="4" width="2" height="2" fill="#C6092B"/>
<rect x="14" y="6" width="2" height="2" fill="#C6092B"/>
</g>
<defs>
<clipPath id="clip0_1480_1247">
<rect width="18" height="18" fill="white"/>
</clipPath>
</defs>
</svg>
